<svg id="Capa_1" data-name="Capa 1" xmlns="http://www.w3.org/2000/svg" viewBox="0 0 100 100"><title>icon-brewery</title><path d="M60.25,65.42,39.75,49V31.53H58.2a2.05,2.05,0,0,1,2,2.06v7.24L48.68,50.47A2.05,2.05,0,0,0,50,54.1a2,2,0,0,0,1.31-.49l13-10.87V33.58a6.16,6.16,0,0,0-6.15-6.15H39.56c0-1.91.11-4.07.19-6.14V2.84a2.06,2.06,0,0,0-4.11,0V21.21c-.32,8.26-.35,11.51,0,12.95V51L56.15,67.39V82.81H48a2.05,2.05,0,1,0,0,4.1h9.41l.84.85v7.35H4.89V87.76l.85-.85H25.39a2,2,0,1,0,0-4.1H6.94V67.39L27.44,51V17.19a2.05,2.05,0,1,0-4.1,0V49L2.84,65.42V84l-2.06,2V99.21H62.3V86.06l-2-2Z"/><path d="M97.16,75.81V62.15a10.19,10.19,0,0,0-3.85-8L76.66,40.81V31.54a16.42,16.42,0,0,0-16.41-16.4H48a2.05,2.05,0,0,0,0,4.1h12.3a12.33,12.33,0,0,1,12.31,12.3V42.78L90.75,57.34a6.07,6.07,0,0,1,2.31,4.8V74.6H74.61a2.06,2.06,0,0,0,0,4.11H94.27l.84.84v7.36H66.4a2.05,2.05,0,1,0,0,4.1H99.22V77.86Z"/><path d="M24.11,56.6,13.85,64.8a2.06,2.06,0,0,0,1.29,3.66A2,2,0,0,0,16.42,68l10.25-8.2a2,2,0,1,0-2.56-3.2Z"/><path d="M62.9,46.5l-6.15,6.15a2.05,2.05,0,0,0,1.45,3.5,2,2,0,0,0,1.45-.6L65.8,49.4a2.05,2.05,0,0,0-2.9-2.9Z"/><path d="M6.93,31.54H19.24a2,2,0,1,0,0-4.1H6.93a2,2,0,0,0,0,4.1Z"/></svg>