<svg id="Capa_1" data-name="Capa 1" xmlns="http://www.w3.org/2000/svg" viewBox="0 0 100 100"><title>icon-commercial-department</title><path d="M91.68,51.89V50c0-4.72-3-7.84-5.23-10.12-1.11-1.14-2.35-2.42-2.35-3.14,0-5.24-1.19-13.85-1.69-17.52-.08-.54-.14-1-.17-1.2a1.62,1.62,0,0,1,.18-.19A5.28,5.28,0,0,0,84.1,14a3.46,3.46,0,0,0-1.9-2.78v-1c0-3.79-5.7-3.79-7.58-3.79s-7.58,0-7.56,3.79V11a3.67,3.67,0,0,0-1.9,3,5.19,5.19,0,0,0,1.68,3.82L67,18c0,.27-.09.68-.16,1.2-.51,3.67-1.7,12.29-1.7,17.52,0,.74-1.14,2.26-1.51,2.76l3,2.28c1.36-1.83,2.27-3.37,2.27-5,0-5,1.16-13.41,1.66-17a17.53,17.53,0,0,0,.23-1.93,3.68,3.68,0,0,0-1.23-2.56,1.88,1.88,0,0,1-.64-1,5.24,5.24,0,0,1,.79-.46l1.09-.51V10.67a11.26,11.26,0,0,1,3.79-.44,11.2,11.2,0,0,1,3.78.44v1.45A2.63,2.63,0,0,0,80,14.3l.27.18a2.69,2.69,0,0,1-.58.76,3.69,3.69,0,0,0-1.24,2.56,17.85,17.85,0,0,0,.24,1.93c.49,3.61,1.65,12,1.65,17,0,2.26,1.66,4,3.42,5.78,2,2.11,4.16,4.3,4.16,7.48v1.89H67.05V50c0-4.72-3-7.84-5.23-10.12-1.1-1.14-2.35-2.42-2.35-3.14,0-5.24-1.18-13.84-1.69-17.51-.07-.54-.13-1-.17-1.2l.18-.19A5.2,5.2,0,0,0,59.47,14a3.46,3.46,0,0,0-1.9-2.78v-1c0-3.79-5.7-3.79-7.57-3.79s-7.57,0-7.57,3.79V11a3.65,3.65,0,0,0-1.9,3,5.25,5.25,0,0,0,1.69,3.82l.18.18c0,.27-.1.68-.17,1.2-.51,3.67-1.7,12.29-1.7,17.52,0,.75-1.14,2.27-1.51,2.77l3,2.27c1.37-1.82,2.27-3.37,2.27-5,0-5,1.16-13.41,1.66-17a17.53,17.53,0,0,0,.23-1.93A3.65,3.65,0,0,0,45,15.24a2,2,0,0,1-.63-1,4.79,4.79,0,0,1,.79-.46l1.08-.52V10.67A10.8,10.8,0,0,1,50,10.23a10.8,10.8,0,0,1,3.79.44v1.45a2.63,2.63,0,0,0,1.54,2.18l.28.18a2.89,2.89,0,0,1-.58.76,3.69,3.69,0,0,0-1.24,2.56A17.83,17.83,0,0,0,54,19.73c.5,3.61,1.66,12,1.66,17,0,2.26,1.66,4,3.42,5.78,2,2.11,4.16,4.3,4.16,7.48v1.89H42.43V50c0-4.72-3-7.84-5.23-10.12-1.1-1.14-2.35-2.42-2.35-3.14,0-5.24-1.18-13.85-1.69-17.53-.07-.54-.13-1-.17-1.2l.18-.19A5.21,5.21,0,0,0,34.86,14,3.48,3.48,0,0,0,33,11.24v-1c0-3.79-5.71-3.79-7.58-3.79s-7.57,0-7.57,3.79V11a3.65,3.65,0,0,0-1.9,3,5.23,5.23,0,0,0,1.69,3.82l.18.18c0,.28-.1.68-.17,1.2-.51,3.68-1.7,12.29-1.7,17.52,0,.72-1.25,2-2.35,3.15C11.36,42.16,8.33,45.28,8.33,50v1.89H4.55V70.83H8.33V55.68H91.67V70.83h3.78V51.89ZM12.13,50c0-3.19,2.11-5.37,4.16-7.48,1.76-1.81,3.41-3.52,3.41-5.78,0-5,1.16-13.41,1.66-17a17.53,17.53,0,0,0,.23-1.93,3.68,3.68,0,0,0-1.23-2.56,2,2,0,0,1-.64-1,4.79,4.79,0,0,1,.79-.46l1.08-.52V10.67a10.8,10.8,0,0,1,3.79-.44,10.8,10.8,0,0,1,3.79.44v1.45a2.63,2.63,0,0,0,1.54,2.18l.28.18a2.56,2.56,0,0,1-.58.76,3.69,3.69,0,0,0-1.24,2.56,17.83,17.83,0,0,0,.23,1.93c.5,3.61,1.66,12,1.66,17,0,2.26,1.66,4,3.41,5.78,2.05,2.11,4.17,4.3,4.17,7.48v1.89H12.13Z"/><polygon points="91.67 89.77 8.34 89.77 8.34 74.62 4.55 74.62 4.55 93.56 95.45 93.56 95.45 74.62 91.67 74.62 91.67 89.77"/><rect x="10.23" y="70.83" width="79.54" height="3.79"/><rect x="12.13" y="61.37" width="3.79" height="3.79"/><rect x="84.09" y="61.37" width="3.79" height="3.79"/><rect x="12.13" y="80.3" width="3.79" height="3.79"/><rect x="84.09" y="80.3" width="3.79" height="3.79"/></svg>