<svg xmlns="http://www.w3.org/2000/svg" viewBox="0 0 190.125 55.333"><defs><style>.a{fill:#fff;}.b{fill:#e2001a;}</style></defs><g transform="translate(0 0)"><path class="a" d="M7.5,55.553H1.749A1.749,1.749,0,0,1,0,53.8V2.154A1.749,1.749,0,0,1,1.749.405H7.5A1.749,1.749,0,0,1,9.247,2.154V53.8A1.749,1.749,0,0,1,7.5,55.553Z" transform="translate(0 -0.221)"/><path class="a" d="M48.462,60.309a.451.451,0,0,1,.425-.3H64.513a1.749,1.749,0,0,0,1.649-2.33L64.2,52.11a1.749,1.749,0,0,0-1.649-1.168H54.962a2.218,2.218,0,0,1-2.089-2.965l4.756-13.3a1.75,1.75,0,0,0,0-1.18l-2.644-7.364a1.749,1.749,0,0,0-3.293,0L40.076,58.618a2.315,2.315,0,0,1-2.18,1.536H28.727A1.749,1.749,0,0,0,26.978,61.9V67.19a1.749,1.749,0,0,0,1.749,1.749h15.4a1.749,1.749,0,0,0,1.646-1.157Z" transform="translate(-14.696 -13.606)"/><path class="a" d="M99.839,34.925c5.008,15.313,10.392,19.9,18.494,20.463a1.747,1.747,0,0,0,1.858-1.747V48.447a1.763,1.763,0,0,0-1.593-1.742c-2.811-.305-5.344-2.282-10.618-15.066-.012-.03-.024-.061-.035-.092L97.426,1.575A1.749,1.749,0,0,0,95.776.4H90.234a1.749,1.749,0,0,0-1.651,2.326L99.839,34.925Z" transform="translate(-48.199 -0.221)"/><g transform="translate(117.287 0.065)"><path class="a" d="M316.173,42.3l2.616,7.735a2.255,2.255,0,0,1-2.136,2.977h-3.207a1.748,1.748,0,0,0-1.649,1.168l-1.963,5.57a1.749,1.749,0,0,0,1.649,2.33h10.125a1.749,1.749,0,0,1,1.657,1.189l3.056,9.036a1.749,1.749,0,0,0,1.657,1.189h6.264a1.749,1.749,0,0,0,1.628-2.387L321.612,34.691a1.749,1.749,0,0,0-3.287.081l-2.153,6.413A1.749,1.749,0,0,0,316.173,42.3Z" transform="translate(-286.008 -18.357)"/><path class="a" d="M372.4,52.9l-7.611-19.582a2.232,2.232,0,0,1,.927-2.713,14.7,14.7,0,0,0,7.116-12.946c0-5.012-1.5-9.049-4.465-12-3.627-3.613-9.215-5.4-17.082-5.478l0-.005h-.723L339.1.15a1.749,1.749,0,0,0-1.656,1.175l-1.934,5.567a1.749,1.749,0,0,0,1.652,2.323h15.46c5.83,0,7.675,1.126,9.386,2.83,1.221,1.216,1.814,3.663,1.814,5.617,0,1.744-1.5,6.905-11.9,7.316h-6.77a1.749,1.749,0,0,0-1.65,2.33l1.959,5.57a1.749,1.749,0,0,0,1.65,1.169h6.061a2.32,2.32,0,0,1,2.154,1.458l7.478,18.682a1.749,1.749,0,0,0,1.624,1.1h6.342A1.75,1.75,0,0,0,372.4,52.9Z" transform="translate(-299.997 -0.147)"/><path class="a" d="M281.274,31.261l9.6-28.816a1.749,1.749,0,0,0-1.659-2.3h-5.559a1.749,1.749,0,0,0-1.659,1.2L274.648,23.4a2.308,2.308,0,0,1-2.189,1.578H259.369a1.749,1.749,0,0,0-1.749,1.749v5.19a1.749,1.749,0,0,0,1.749,1.749H270.6c.309,0,.43.235.43.6,0,3.116-3.309,11.551-11.871,12.451a1.737,1.737,0,0,0-1.54,1.736v5.18a1.746,1.746,0,0,0,1.827,1.748,17.524,17.524,0,0,0,9.832-3.282c5.053-3.665,8.986-10.477,12.021-20.822Z" transform="translate(-257.62 -0.143)"/><path class="a" d="M257.62,2.084V7.416a1.759,1.759,0,0,0,1.146,1.666,7.84,7.84,0,0,1,4.922,5.577,1.765,1.765,0,0,0,1.711,1.359L270.737,16a1.755,1.755,0,0,0,1.732-1.955c-.846-7.672-6.66-12.25-12.7-13.665A1.75,1.75,0,0,0,257.62,2.084Z" transform="translate(-257.62 -0.245)"/></g><path class="a" d="M192.848,20.852V2.4A1.644,1.644,0,0,0,191.2.757h-5.659A1.85,1.85,0,0,0,183.7,2.6V20.841a1.261,1.261,0,0,0,1.261,1.261H191.6A1.25,1.25,0,0,0,192.848,20.852Z" transform="translate(-100.067 -0.412)"/><g transform="translate(75.248)"><path class="a" d="M202.051.029c-8.176,1.486-15.593,8.666-15.634,21.659h-.028l.015,2.6A1.207,1.207,0,0,1,185.2,25.5H174.912a1.245,1.245,0,0,0-1.245,1.245v6.389c0,9.508-3.418,12.613-6.938,13.266a1.772,1.772,0,0,0-1.447,1.746v5.4a1.749,1.749,0,0,0,1.961,1.728,16.226,16.226,0,0,0,10.069-5.144c3.42-3.669,5.239-8.788,5.458-15.779a1.256,1.256,0,0,1,1.249-1.227h9.133a1.86,1.86,0,0,0,1.86-1.86V29.551l.06-7.821c0-9.359,4.579-12.18,7.827-13.026a1.662,1.662,0,0,0,1.261-1.6V1.765A1.776,1.776,0,0,0,202.051.029Z" transform="translate(-165.282 0)"/><path class="a" d="M228.684,90.7c-2.631-.691-6.113-3.1-7.332-8.526a1.339,1.339,0,0,0-1.3-1.046H214.1a1.467,1.467,0,0,0-1.445,1.713c1.691,9.626,8.145,15.195,15.18,16.468a1.8,1.8,0,0,0,2.118-1.766V92.314A1.673,1.673,0,0,0,228.684,90.7Z" transform="translate(-191.076 -44.194)"/></g></g><g transform="translate(55.09 0.61)"><path class="b" d="M130.281,18.643l-1.221.241,1.216-.956-.011-1.871c0,.045-2.884,1.966-2.891,1.974s2.883-3.3,2.877-4.22l-.015-2.414-2.278,1.7s1.544-1.8,2.086-2.433a.759.759,0,0,0,.184-.508l-.011-1.839c-.009,0-5.928,4.987-5.928,4.987s4.636-4.808,5.7-5.91a.765.765,0,0,0,.215-.543L130.2,5.006,127.76,6.834l2.151-2.772a.827.827,0,0,0-.066-1.089l-.744-.752s-1.046.668-1.046.662.733-.83.736-.828a2,2,0,0,0-1.293-.714l-.513,0-.255.481s-.164-.478-.16-.478l-.862.005s-3.686,3.5-3.686,3.5c.164-.6.745-3.481.745-3.481h-.236A1.536,1.536,0,0,0,121,2.916l.006,1.008c0-.029.063-.057.1-.087a1.357,1.357,0,0,0-.094.333l.021,3.523a.96.96,0,0,0,.427.242l.071,0-.494.565.193,1.812c.1-.074,3-2.739,3.989-3.584l-3.482,4.547c-.463.529.3.978.472.988.31.019.454-.032,1.85-1.312a18.551,18.551,0,0,0-1.618,2.071.779.779,0,0,0-.068.7l.583,1.537A6.29,6.29,0,0,0,125,13.886l-1.076,1.426-.627.834.518,1.365a39.934,39.934,0,0,0,3.472-2.876s-2.541,3.411-2.88,3.858a.7.7,0,0,0-.052.663l.756,1.774c.086-.055,1.344-.561,1.445-.64l-1.227,1.216.44,1.16a20.57,20.57,0,0,0,2.493-2.072l-2.132,2.98.773,2.081c.08,0,1.388-1.159,1.448-1.2-.094.187-1.221,1.427-1.3,1.59l1.292,3.408.979-.9s-.873,1.1-.864,1.1l.872,1.976c.317.281,1.029.186,1.028-.094l-.031-6.122-1.4.731,1.215-1.462a.764.764,0,0,0,.176-.5l-.012-1.822-.541.282.535-1.155Z" transform="translate(-121.004 -1.341)"/></g></svg>