<?xml version="1.0" encoding="utf-8"?>
<!-- Generator: Adobe Illustrator 22.1.0, SVG Export Plug-In . SVG Version: 6.00 Build 0)  -->
<svg version="1.1" id="Capa_1" xmlns="http://www.w3.org/2000/svg" xmlns:xlink="http://www.w3.org/1999/xlink" x="0px" y="0px"
	 viewBox="0 0 27.2 94.5" style="enable-background:new 0 0 27.2 94.5;" xml:space="preserve">
<style type="text/css">
	.st0{fill:#1D1D1B;}
</style>
<g>
	<path class="st0" d="M22.9,29.4c-1.5-2.7-3.4-5.1-5.2-7.7C13.3,15.5,9.9,8.5,7.6,1.2C7.4,0.5,6.6,0.1,5.9,0S4.5,0.2,3.8,0.4
		C2.8,0.7,1.7,1,1,1.7C0.2,2.4-0.3,3.6,0.2,4.5c3.3,6.9,5.7,14.4,6.8,22c0.5,3,0.7,6,1.5,8.9c0.7,2.5,1.7,4.9,2.7,7.3
		c0.5,1.1,0.9,2.2,1.4,3.3l2.7,0.3l2.2,0.3l0.4-1.3l1.2-4.3l5.8,1.5l1,0.3l0.4-0.8l1-2.2c-0.5-1.4-1-2.7-1.6-4.1
		C24.8,33.7,24,31.5,22.9,29.4z"/>
	<path class="st0" d="M19.6,77.3l-0.8,0.3l-0.5-0.9l-2.9-5.2l-3.9,2.1l-1.2,0.6L9,72.4l-1.6-2.2C7.2,70.6,7,71,6.8,71.4
		c-2,4.6-3.9,9.2-5.9,13.9c-0.5,1.1-0.9,2.3-0.5,3.5c0.3,0.8,0.9,1.4,1.6,1.9c2.4,1.8,5.2,3.1,8.1,3.7c0.9,0.2,1.8,0.3,2.7-0.1
		c1-0.5,1.5-1.5,2-2.5c2.1-4.5,4.2-9.1,6.3-13.6c0.2-0.5,0.5-1,0.7-1.5L19.6,77.3z"/>
</g>
</svg>
