<?xml version="1.0" encoding="utf-8"?>
<!-- Generator: Adobe Illustrator 22.1.0, SVG Export Plug-In . SVG Version: 6.00 Build 0)  -->
<svg version="1.1" id="Capa_1" xmlns="http://www.w3.org/2000/svg" xmlns:xlink="http://www.w3.org/1999/xlink" x="0px" y="0px"
	 viewBox="0 0 470 24" style="enable-background:new 0 0 470 24;" xml:space="preserve">
<style type="text/css">
	.st0{fill:#E30613;}
</style>
<g>
	<g>
		<path class="st0" d="M8,22.7c-0.6,0-1.2-0.2-1.6-0.7c-0.7-0.8-0.7-1.9-0.1-2.7l6.7-8.7l-8.9,5.1c-0.7,0.4-1.6,0.4-2.3-0.1
			c-0.7-0.5-1-1.3-0.8-2.1l1.4-6.9C1.9,6.5,1.5,6.2,1.3,5.7C0.7,4.7,1,3.4,2,2.8l2.1-1.2c0.7-0.4,1.6-0.4,2.3,0.1
			c0.7,0.5,1,1.3,0.8,2.1L6.1,9.8l14.2-8.2c0.9-0.5,2-0.3,2.6,0.4c0.7,0.8,0.7,1.9,0.1,2.7l-6.7,8.7L36.7,1.6c0.9-0.5,2-0.3,2.7,0.5
			C40,2.9,40,4,39.4,4.8l-6.7,8L52,1.6c0.9-0.5,2.1-0.3,2.8,0.6C55.4,3,55.3,4.2,54.5,5l-4.7,4.4l13.4-7.8c0.9-0.5,2-0.3,2.7,0.4
			c0.7,0.8,0.7,1.9,0.1,2.7l-6.8,8.5L79.4,1.6c0.9-0.5,2.2-0.3,2.8,0.6c0.6,0.9,0.5,2.1-0.4,2.8l-2.1,1.8l9-5.2
			c0.9-0.5,2.1-0.3,2.8,0.6s0.5,2.1-0.3,2.8l-3.6,3.2l11.4-6.6c0.9-0.5,2-0.3,2.7,0.5c0.7,0.8,0.6,2-0.1,2.7L95,12l18-10.4
			c0.9-0.5,2-0.3,2.7,0.5s0.6,2-0.1,2.7l-6.5,7.1L127,1.6c0.9-0.5,2-0.3,2.7,0.5c0.7,0.8,0.7,1.9,0,2.7L123,13l19.8-11.4
			c0.9-0.5,2.1-0.3,2.7,0.5c0.6,0.8,0.6,2-0.1,2.8l-6.3,6.7l17.2-9.9c0.9-0.5,2.1-0.3,2.7,0.6c0.6,0.9,0.5,2.1-0.3,2.8l-4.9,4.6
			l13.8-8c0.9-0.5,2-0.3,2.7,0.5c0.7,0.8,0.6,2-0.1,2.7l-6.6,7.3l18.3-10.6c0.9-0.5,2.1-0.3,2.7,0.5c0.6,0.8,0.6,2-0.2,2.8l-6,6.2
			l16.4-9.5c0.9-0.5,2-0.3,2.6,0.4s0.7,1.9,0.1,2.7l-6.7,8.9l20.8-12c0.9-0.5,2-0.3,2.7,0.5c0.7,0.8,0.6,2-0.1,2.7l-6.5,7.2
			l18.1-10.4c0.9-0.5,2-0.3,2.7,0.5c0.7,0.8,0.6,2-0.1,2.7l-6.6,7.3l18.3-10.6c0.9-0.5,2-0.3,2.6,0.4c0.7,0.8,0.7,1.9,0.1,2.7
			l-6.7,8.9l20.8-12c1-0.6,2.2-0.3,2.8,0.6c0.6,0.9,0.4,2.1-0.4,2.8l-0.5,0.4l6.7-3.9c0.9-0.5,2.1-0.3,2.7,0.5
			c0.6,0.8,0.6,2-0.2,2.8l-5.7,5.6l15.4-8.9c1-0.5,2.2-0.3,2.8,0.6c0.6,0.9,0.4,2.1-0.4,2.8L280,5.3l6.4-3.7c0.9-0.5,2-0.3,2.7,0.5
			s0.6,2-0.1,2.7l-6.6,7.4l18.4-10.7c0.9-0.5,2.1-0.3,2.7,0.6c0.6,0.9,0.5,2-0.2,2.8l-5.4,5.2l14.9-8.6c0.9-0.5,2.1-0.3,2.7,0.6
			c0.6,0.8,0.6,2-0.2,2.8l-5.6,5.4l15.2-8.7c0.9-0.5,2.1-0.3,2.7,0.6s0.5,2.1-0.2,2.8l-5.3,5.1l14.7-8.5c0.9-0.5,2-0.3,2.7,0.5
			c0.7,0.8,0.6,2,0,2.7l-6.7,7.6l18.8-10.8c0.9-0.5,2-0.3,2.7,0.5c0.7,0.8,0.7,1.9,0,2.7l-6.7,8l19.3-11.2c0.9-0.5,2.2-0.3,2.8,0.6
			c0.6,0.9,0.5,2.1-0.4,2.8l-2.4,2.1l9.5-5.5c0.9-0.5,2.1-0.3,2.7,0.6c0.6,0.9,0.5,2.1-0.2,2.8l-5.2,4.9L388,1.6
			c0.9-0.5,2.1-0.3,2.7,0.6c0.6,0.9,0.5,2.1-0.2,2.8l-5.4,5.1l14.7-8.5c0.9-0.5,2.1-0.3,2.7,0.5c0.6,0.8,0.6,2-0.2,2.8l-5.7,5.7
			l15.6-9c0.9-0.5,2.1-0.3,2.7,0.5c0.6,0.8,0.6,2-0.1,2.8l-6.2,6.4l16.8-9.7c0.9-0.5,2.1-0.3,2.7,0.5c0.6,0.8,0.6,2-0.2,2.8
			l-5.8,5.8l15.7-9.1c0.9-0.5,2-0.3,2.6,0.4c0.7,0.8,0.7,1.9,0.1,2.7l-6.8,8.7l20.5-11.8c0.9-0.5,2.1-0.3,2.7,0.5
			c0.7,0.8,0.6,2-0.1,2.8l-6.4,6.9l15.3-8.8c0.9-0.5,2.2-0.3,2.8,0.6c0.6,0.9,0.5,2.1-0.4,2.8l-1.4,1.2c0.5,0,1,0.1,1.4,0.4
			c0.7,0.5,1,1.4,0.7,2.2l-1.9,6.4c0.7,0.1,1.3,0.4,1.7,1c0.6,1,0.2,2.3-0.8,2.9l-3.2,1.8c-0.7,0.4-1.7,0.4-2.4-0.2
			c-0.7-0.5-1-1.4-0.7-2.2l1.7-5.9L449,22.4c-0.9,0.5-2.2,0.3-2.8-0.6c-0.6-0.9-0.5-2.1,0.4-2.8l0.3-0.2l-6.4,3.7
			c-0.9,0.5-2.1,0.3-2.7-0.5c-0.7-0.8-0.6-2,0.1-2.8l6.4-6.9l-17.7,10.2c-0.9,0.5-2,0.3-2.6-0.4c-0.7-0.8-0.7-1.9-0.1-2.7l6.8-8.7
			l-20.5,11.8c-0.9,0.5-2.1,0.3-2.7-0.5c-0.6-0.8-0.6-2,0.2-2.8l5.8-5.8l-15.7,9.1c-0.9,0.5-2.1,0.3-2.7-0.5c-0.6-0.8-0.6-2,0.1-2.8
			l6.2-6.4l-16.9,9.7c-0.9,0.5-2.1,0.3-2.7-0.5c-0.6-0.8-0.6-2,0.2-2.8l5.7-5.7l-15.6,9c-0.9,0.5-2.1,0.3-2.7-0.6s-0.5-2.1,0.2-2.8
			l5.4-5.1l-14.7,8.5c-0.9,0.5-2.1,0.3-2.7-0.6c-0.6-0.9-0.5-2.1,0.2-2.8l5.2-4.9l-14.4,8.3c-0.9,0.5-2.2,0.3-2.8-0.6
			c-0.6-0.9-0.5-2.1,0.4-2.8l2.4-2.1l-9.5,5.5c-0.9,0.5-2,0.3-2.7-0.5c-0.7-0.8-0.7-1.9,0-2.7l6.7-8l-19.3,11.2
			c-0.9,0.5-2,0.3-2.7-0.5c-0.7-0.8-0.6-2,0-2.7l6.7-7.6l-18.8,10.8c-0.9,0.5-2.1,0.3-2.7-0.6c-0.6-0.9-0.5-2.1,0.2-2.8l5.3-5.1
			l-14.7,8.5c-0.9,0.5-2.1,0.3-2.7-0.6c-0.6-0.8-0.6-2,0.2-2.8l5.6-5.4l-15.2,8.7c-0.9,0.5-2.1,0.3-2.7-0.6c-0.6-0.9-0.5-2,0.2-2.8
			l5.4-5.2l-14.9,8.6c-0.9,0.5-2,0.3-2.7-0.5c-0.7-0.8-0.6-2,0.1-2.7l6.6-7.4l-18.4,10.7c-1,0.6-2.2,0.3-2.8-0.6
			c-0.6-0.9-0.4-2.1,0.4-2.8l0.3-0.2l-6.4,3.7c-0.9,0.5-2.1,0.3-2.7-0.5c-0.6-0.8-0.6-2,0.2-2.8l5.7-5.6l-15.4,8.9
			c-1,0.6-2.2,0.3-2.8-0.6c-0.6-0.9-0.4-2.1,0.4-2.8l0.5-0.4l-6.7,3.9c-0.9,0.5-2,0.3-2.6-0.4c-0.7-0.8-0.7-1.9-0.1-2.7l6.7-8.9
			l-20.8,12c-0.9,0.5-2,0.3-2.7-0.5c-0.7-0.8-0.6-2,0.1-2.7l6.6-7.3l-18.3,10.6c-0.9,0.5-2,0.3-2.7-0.5c-0.7-0.8-0.6-2,0.1-2.7
			l6.5-7.2L184,22.4c-0.9,0.5-2,0.3-2.6-0.4c-0.7-0.8-0.7-1.9-0.1-2.7l6.7-8.9l-20.8,12c-0.9,0.5-2.1,0.3-2.7-0.5s-0.6-2,0.2-2.8
			l6-6.1l-16.4,9.5c-0.9,0.5-2,0.3-2.7-0.5c-0.7-0.8-0.6-2,0.1-2.7l6.6-7.3l-18.3,10.6c-0.9,0.5-2.1,0.3-2.7-0.6
			c-0.6-0.9-0.5-2.1,0.3-2.8l4.9-4.6l-13.8,8c-0.9,0.5-2.1,0.3-2.7-0.5c-0.6-0.8-0.6-2,0.1-2.8l6.3-6.7L115,22.4
			c-0.9,0.5-2,0.3-2.7-0.5c-0.7-0.8-0.7-1.9,0-2.7l6.8-8.2L99.4,22.4c-0.9,0.5-2,0.3-2.7-0.5c-0.7-0.8-0.6-2,0.1-2.7l6.5-7.1
			L85.3,22.4c-0.9,0.5-2,0.3-2.7-0.5c-0.7-0.8-0.6-2,0.1-2.7l6.5-7.1l-18,10.4c-0.9,0.5-2.1,0.3-2.8-0.6C67.8,21,68,19.7,68.8,19
			l3.6-3.2L61,22.4c-0.9,0.5-2.2,0.3-2.8-0.6c-0.6-0.9-0.5-2.1,0.4-2.8l2.1-1.8l-9,5.2c-0.9,0.5-2,0.3-2.7-0.4
			c-0.7-0.8-0.7-1.9-0.1-2.7l6.8-8.5L35.5,22.4c-0.9,0.5-2.1,0.3-2.8-0.6c-0.6-0.9-0.5-2.1,0.3-2.8l4.7-4.4l-13.4,7.8
			c-0.9,0.5-2,0.3-2.7-0.5c-0.7-0.8-0.7-1.9,0-2.7l6.7-8L9,22.4C8.7,22.6,8.3,22.7,8,22.7z"/>
	</g>
</g>
</svg>
