<svg xmlns="http://www.w3.org/2000/svg" viewBox="0 0 16.436 62.678"><defs><style>.a{fill:#1d1d1b;}</style></defs><g transform="translate(0 0)"><path class="a" d="M108.1,66.7a3.938,3.938,0,0,1-2.013-.945,4.419,4.419,0,0,1-.843-3.077q-.177-9.018-.351-18.036a49.241,49.241,0,0,1,.2-7.076,76.075,76.075,0,0,1,1.75-7.994A70.911,70.911,0,0,0,108.6,8.715a2.26,2.26,0,0,1,1.613-2.1,6.588,6.588,0,0,1,2.813-.156,5.091,5.091,0,0,1,1.914.423,1.729,1.729,0,0,1,1.006,1.567,67.884,67.884,0,0,0,1.5,20.762,75.2,75.2,0,0,1,1.746,8.208,48.418,48.418,0,0,1,.175,6.355q-.154,9.533-.313,19.069a4.341,4.341,0,0,1-.721,2.844,3.9,3.9,0,0,1-2.177,1.052A18.39,18.39,0,0,1,108.1,66.7" transform="translate(-103.906 -5.441)"/><path class="a" d="M112.941,68.817a19.273,19.273,0,0,1-4.342-.492h0a4.823,4.823,0,0,1-2.489-1.216A5.208,5.208,0,0,1,105,63.392l-.351-18.036a49.42,49.42,0,0,1,.21-7.213,49.431,49.431,0,0,1,1.254-6.031q.263-1.029.511-2.062a69.9,69.9,0,0,0,1.731-20.571A3.158,3.158,0,0,1,110.6,6.425a7.52,7.52,0,0,1,3.214-.21,5.827,5.827,0,0,1,2.276.53,2.659,2.659,0,0,1,1.51,2.489A66.8,66.8,0,0,0,119.079,29.7q.252,1.075.522,2.15a49.082,49.082,0,0,1,1.243,6.161,48.737,48.737,0,0,1,.179,6.473l-.313,19.073a5.2,5.2,0,0,1-.957,3.454,4.7,4.7,0,0,1-2.688,1.353A19.015,19.015,0,0,1,112.941,68.817Zm-.488-60.772a3.577,3.577,0,0,0-1.212.175c-.515.183-1.018.656-.987,1.136a71.512,71.512,0,0,1-1.777,21.135c-.164.7-.339,1.391-.515,2.093a47.745,47.745,0,0,0-1.212,5.8,48.059,48.059,0,0,0-.194,6.938l.351,18.036a3.73,3.73,0,0,0,.576,2.436,3.11,3.11,0,0,0,1.54.675l0,0a17.616,17.616,0,0,0,7.625.046,3.115,3.115,0,0,0,1.662-.743,3.626,3.626,0,0,0,.488-2.234l.313-19.073a46.7,46.7,0,0,0-.164-6.229,49.267,49.267,0,0,0-1.2-5.924c-.179-.724-.362-1.452-.53-2.181A68.668,68.668,0,0,1,115.7,9.082c.019-.206-.206-.488-.5-.64a4.332,4.332,0,0,0-1.559-.32A11.137,11.137,0,0,0,112.453,8.045Z" transform="translate(-104.614 -6.139)"/></g></svg>